# xmcd CD database file
#
# Track frame offsets:
#	183
#	12475
#	27403
#	42716
#	56585
#	74010
#	85195
#	98424
#	115083
#	126134
#	141930
#	165099
#	178948
#	190736
#	201475
#	211469
#	224008
#	238541
#	249429
#	260459
#	275413
#	289598
#	306995
#	322167
#
# Disc length: 4470 seconds
#
# Revision: 1
# Processed by: cddbd v1.4PL0 Copyright (c) Steve Scherf et al.
# Submitted via: CDex 1.50
#
DISCID=74117418
DTITLE=Lionel Hampton - Goodman Days
DYEAR=2003
DGENRE=Jazz
TTITLE0=Dinah
TTITLE1=Sweet Sue, Just You
TTITLE2=Vibraphone Blues
TTITLE3=Runnin'Wild
TTITLE4=My Gal Sal
TTITLE5=Avalon
TTITLE6=Moonglow
TTITLE7=Limehouse Blues
TTITLE8=Some of These Days
TTITLE9=I'm Ding Dong Daddy
TTITLE10=I got Rhytm
TTITLE11=I know That You Know
TTITLE12=I know That You Know
TTITLE13=Jivin'the Vibes
TTITLE14=Space Man
TTITLE15=Rose Room
TTITLE16=Start Dust
TTITLE17=Soft Winds
TTITLE18=AC-DC Current
TTITLE19=Flying Home
TTITLE20=Memories of You
TTITLE21=Honeysuckle Rose
TTITLE22=Stompin'at the Savoy
TTITLE23=Good Enough to Keep (Air Mail Special)
EXTD=YEAR: 2003
EXTT0=
EXTT1=
EXTT2=
EXTT3=
EXTT4=
EXTT5=
EXTT6=
EXTT7=
EXTT8=
EXTT9=
EXTT10=
EXTT11=
EXTT12=
EXTT13=
EXTT14=
EXTT15=
EXTT16=
EXTT17=
EXTT18=
EXTT19=
EXTT20=
EXTT21=
EXTT22=
EXTT23=
PLAYORDER=
